<?xml version="1.0" encoding="UTF-8" standalone="no"?>
<!-- Created with Inkscape (http://www.inkscape.org/) -->

<svg
   version="1.1"
   id="svg1"
   width="420"
   height="382"
   viewBox="0 0 420 382"
   xmlns="http://www.w3.org/2000/svg"
   xmlns:svg="http://www.w3.org/2000/svg">
  <defs
     id="defs1" />
  <g
     id="g1">
    <path
       style="fill:#ffffff;fill-opacity:1"
       d="m 276.5,380.59034 c -12.81173,-2.95641 -20.22538,-6.83088 -29.78039,-15.56362 l -5.71274,-5.22113 -6.75344,5.00503 C 219.21329,375.95699 206.50293,381 193.44986,381 c -23.90797,0 -53.09624,-17.48959 -63.46369,-38.0274 -5.02528,-9.95502 -7.05094,-19.04689 -7.68047,-34.4726 -1.23665,-30.30231 4.29436,-62.10825 26.06255,-149.87228 l 9.3935,-37.87228 -23.63088,0.55129 c -30.64968,0.71504 -39.781296,2.65356 -58.446027,12.40733 C 56.87034,143.5461 41.139341,168.34205 37.777966,193.46468 34.33333,219.2096 47.814976,239.89874 74,249.05158 c 3.575,1.24962 6.789961,2.53672 7.144357,2.86023 C 81.498753,252.23531 71.883839,260.825 59.77788,271 38.814961,288.61923 37.578795,289.49065 33.812958,289.30367 25.157558,288.8739 15.669208,280.20252 8.9196957,266.55378 3.7379281,256.0753 2.0824411,249.71373 1.3589534,237.5 -0.69785224,202.77754 22.096887,154.26181 55.626144,121.99913 72.893964,105.38361 88.707338,94.586029 113.5,82.482113 142.53464,68.307237 159.51907,63.406941 193.18442,59.491804 260.09693,51.710165 272.80751,49.847463 292.06447,45.001203 307.05269,41.229222 316.18277,37.90604 328.5,31.73933 340.57322,25.694786 347.48053,21.087569 359.46918,11.082713 364.46661,6.9122209 369.40155,2.825 370.43572,2 372.2648,0.54085843 372.29911,0.92220375 371.69517,16 369.98271,58.753016 357.05421,87.646437 331,106.94811 c -18.63831,13.80777 -33.84949,17.6472 -74.20486,18.72996 l -23.70485,0.63601 -9.47646,20.59296 C 188.6248,222.94046 173.67473,269.53862 173.695,302.5 c 0.008,13.71533 1.75402,22.50945 6.20297,31.25002 5.73955,11.27611 16.54441,18.32097 28.35533,18.48791 6.74428,0.0953 9.79951,-1.09992 15.7467,-6.16035 l 3.5,-2.97813 -2.76873,-4.98042 c -9.1569,-16.47155 -14.73885,-47.23505 -12.65949,-69.76958 1.54297,-16.72149 7.57173,-29.05415 19.8781,-40.66336 9.8149,-9.25888 14.89072,-11.07992 31.05012,-11.13978 11.7879,-0.0437 12.80113,0.11235 17.7859,2.73873 16.25066,8.56215 22.09629,22.29263 19.24988,45.21496 -3.36729,27.11703 -11.28114,44.45784 -30.41169,66.63803 l -7.45035,8.63803 3.16313,3.00002 c 5.55753,5.27094 9.36386,6.6739 18.17779,6.7001 7.08315,0.0211 8.80014,-0.3625 14.77282,-3.30007 3.71698,-1.82815 9.46849,-5.83319 12.78113,-8.90011 10.57502,-9.79061 24.80459,-33.66763 28.37219,-47.60814 5.58022,-21.80486 3.87015,-58.30744 -3.42776,-73.16786 -1.62062,-3.3 -5.68664,-9.33339 -9.03559,-13.40753 C 319.76133,194.31378 318,191.15843 318,187.00982 c 0,-7.24684 7.78271,-16.79939 17.60023,-21.60266 4.93481,-2.41438 7.10357,-2.87447 13.394,-2.84148 11.33403,0.0595 15.4633,2.77859 27.50577,18.11269 7.14702,9.10055 12.84056,11.44793 17.41961,7.1819 3.26317,-3.04011 2.2829,-8.04447 -2.54409,-12.98775 -3.19128,-3.26817 -3.51236,-4.00271 -2.35778,-5.39389 3.82827,-4.61279 13.80101,-6.17508 19.7571,-3.09507 3.66794,1.89677 7.48689,6.73637 9.08706,11.51566 5.11713,15.28356 -7.2926,35.9483 -24.1119,40.15124 l -4.75,1.18697 v 14.30893 c 0,17.49135 -1.07788,25.85265 -5.66618,43.95364 -7.90925,31.20222 -17.99558,51.49617 -36.95205,74.34845 -11.66102,14.05753 -26.12503,23.95726 -40.41162,27.65928 -8.82518,2.28684 -22.13305,2.77571 -29.47015,1.08261 z m -20.78269,-79.08787 c 7.37369,-14.57685 11.52731,-26.23273 11.66304,-32.72881 0.10883,-5.20833 -0.17609,-6.02248 -3.14958,-9 -2.70659,-2.71026 -4.02908,-3.27366 -7.68434,-3.27366 -3.53791,0 -5.04193,0.59604 -7.57004,3 -5.78071,5.49682 -6.48147,7.7868 -6.42617,21 0.0485,11.59435 1.01529,18.30654 4.1638,28.90871 1.41235,4.7559 1.57339,4.92167 2.97257,3.05981 0.81363,-1.08269 3.52745,-6.01741 6.03072,-10.96605 z"
       id="path1" />
  </g>
</svg>
